<mxfile host="app.diagrams.net" modified="2023-10-14T16:33:41.347Z" agent="Mozilla/5.0 (Windows NT 10.0; Win64; x64) AppleWebKit/537.36 (KHTML, like Gecko) Chrome/118.0.0.0 Safari/537.36" etag="3RhMO5II5L_WMHMZ49hr" version="22.0.4" type="device">
  <diagram name="Strona-1" id="sLGT4XuhsdnO4zU3xfKS">
    <mxGraphModel dx="1434" dy="758" grid="1" gridSize="10" guides="1" tooltips="1" connect="1" arrows="1" fold="1" page="1" pageScale="1" pageWidth="827" pageHeight="1169" math="0" shadow="0">
      <root>
        <mxCell id="0" />
        <mxCell id="1" parent="0" />
        <mxCell id="8q2B8iHWEoilIU4AEWa9-15" style="edgeStyle=orthogonalEdgeStyle;rounded=0;orthogonalLoop=1;jettySize=auto;html=1;entryX=0;entryY=0.5;entryDx=0;entryDy=0;endArrow=open;endFill=0;" edge="1" parent="1" source="8q2B8iHWEoilIU4AEWa9-3" target="8q2B8iHWEoilIU4AEWa9-9">
          <mxGeometry relative="1" as="geometry" />
        </mxCell>
        <mxCell id="8q2B8iHWEoilIU4AEWa9-3" value="&lt;p style=&quot;margin:0px;margin-top:6px;text-align:center;&quot;&gt;&lt;b&gt;Admin&lt;/b&gt;&lt;/p&gt;&lt;hr&gt;&lt;p style=&quot;margin:0px;margin-left:8px;&quot;&gt;+ id_admin: int&lt;br&gt;+ admin_name: string&lt;/p&gt;&lt;p style=&quot;margin:0px;margin-left:8px;&quot;&gt;+ admin_surname: string&lt;/p&gt;&lt;p style=&quot;margin:0px;margin-left:8px;&quot;&gt;&lt;br&gt;&lt;/p&gt;" style="align=left;overflow=fill;html=1;dropTarget=0;whiteSpace=wrap;" vertex="1" parent="1">
          <mxGeometry x="40" y="510" width="180" height="90" as="geometry" />
        </mxCell>
        <mxCell id="8q2B8iHWEoilIU4AEWa9-4" value="" style="shape=component;jettyWidth=8;jettyHeight=4;" vertex="1" parent="8q2B8iHWEoilIU4AEWa9-3">
          <mxGeometry x="1" width="20" height="20" relative="1" as="geometry">
            <mxPoint x="-24" y="4" as="offset" />
          </mxGeometry>
        </mxCell>
        <mxCell id="8q2B8iHWEoilIU4AEWa9-13" style="edgeStyle=orthogonalEdgeStyle;rounded=0;orthogonalLoop=1;jettySize=auto;html=1;entryX=-0.017;entryY=0.87;entryDx=0;entryDy=0;entryPerimeter=0;startArrow=open;startFill=0;endArrow=none;endFill=0;" edge="1" parent="1" source="8q2B8iHWEoilIU4AEWa9-5" target="8q2B8iHWEoilIU4AEWa9-11">
          <mxGeometry relative="1" as="geometry">
            <mxPoint x="260" y="350" as="targetPoint" />
            <Array as="points">
              <mxPoint x="261" y="195" />
              <mxPoint x="261" y="347" />
            </Array>
          </mxGeometry>
        </mxCell>
        <mxCell id="8q2B8iHWEoilIU4AEWa9-5" value="&lt;p style=&quot;margin:0px;margin-top:6px;text-align:center;&quot;&gt;&lt;b&gt;Investment&lt;/b&gt;&lt;/p&gt;&lt;hr&gt;&lt;p style=&quot;margin:0px;margin-left:8px;&quot;&gt;+ Id_investment: int&lt;br&gt;+ investment_name: string&lt;/p&gt;&lt;p style=&quot;margin:0px;margin-left:8px;&quot;&gt;+ id_building: int&lt;/p&gt;&lt;p style=&quot;margin:0px;margin-left:8px;&quot;&gt;&lt;br&gt;&lt;/p&gt;" style="align=left;overflow=fill;html=1;dropTarget=0;whiteSpace=wrap;" vertex="1" parent="1">
          <mxGeometry x="320" y="150" width="180" height="90" as="geometry" />
        </mxCell>
        <mxCell id="8q2B8iHWEoilIU4AEWa9-6" value="" style="shape=component;jettyWidth=8;jettyHeight=4;" vertex="1" parent="8q2B8iHWEoilIU4AEWa9-5">
          <mxGeometry x="1" width="20" height="20" relative="1" as="geometry">
            <mxPoint x="-24" y="4" as="offset" />
          </mxGeometry>
        </mxCell>
        <mxCell id="8q2B8iHWEoilIU4AEWa9-7" value="&lt;p style=&quot;margin:0px;margin-top:6px;text-align:center;&quot;&gt;&lt;b&gt;Client&lt;/b&gt;&lt;br&gt;&lt;/p&gt;&lt;hr&gt;&lt;p style=&quot;margin:0px;margin-left:8px;&quot;&gt;+ id_client: int&lt;br&gt;+ name: string&lt;/p&gt;&lt;p style=&quot;margin:0px;margin-left:8px;&quot;&gt;+ surname: string&lt;/p&gt;" style="align=left;overflow=fill;html=1;dropTarget=0;whiteSpace=wrap;" vertex="1" parent="1">
          <mxGeometry x="600" y="510" width="180" height="90" as="geometry" />
        </mxCell>
        <mxCell id="8q2B8iHWEoilIU4AEWa9-8" value="" style="shape=component;jettyWidth=8;jettyHeight=4;" vertex="1" parent="8q2B8iHWEoilIU4AEWa9-7">
          <mxGeometry x="1" width="20" height="20" relative="1" as="geometry">
            <mxPoint x="-24" y="4" as="offset" />
          </mxGeometry>
        </mxCell>
        <mxCell id="8q2B8iHWEoilIU4AEWa9-14" style="edgeStyle=orthogonalEdgeStyle;rounded=0;orthogonalLoop=1;jettySize=auto;html=1;entryX=1;entryY=0.5;entryDx=0;entryDy=0;endArrow=open;endFill=0;" edge="1" parent="1" source="8q2B8iHWEoilIU4AEWa9-9" target="8q2B8iHWEoilIU4AEWa9-11">
          <mxGeometry relative="1" as="geometry">
            <mxPoint x="590" y="280" as="targetPoint" />
            <Array as="points">
              <mxPoint x="591" y="440" />
              <mxPoint x="591" y="310" />
            </Array>
          </mxGeometry>
        </mxCell>
        <mxCell id="8q2B8iHWEoilIU4AEWa9-9" value="&lt;p style=&quot;margin:0px;margin-top:6px;text-align:center;&quot;&gt;&lt;b&gt;Premises&lt;/b&gt;&lt;br&gt;&lt;/p&gt;&lt;hr&gt;&lt;p style=&quot;margin:0px;margin-left:8px;&quot;&gt;+ id_Premises: int&lt;br&gt;+ number: string&lt;/p&gt;&lt;p style=&quot;margin:0px;margin-left:8px;&quot;&gt;+&amp;nbsp;square_footage: string&lt;/p&gt;&lt;p style=&quot;margin:0px;margin-left:8px;&quot;&gt;+id_client : int&lt;/p&gt;&lt;p style=&quot;margin:0px;margin-left:8px;&quot;&gt;+id_admin : int&lt;/p&gt;" style="align=left;overflow=fill;html=1;dropTarget=0;whiteSpace=wrap;" vertex="1" parent="1">
          <mxGeometry x="320" y="380" width="180" height="120" as="geometry" />
        </mxCell>
        <mxCell id="8q2B8iHWEoilIU4AEWa9-10" value="" style="shape=component;jettyWidth=8;jettyHeight=4;" vertex="1" parent="8q2B8iHWEoilIU4AEWa9-9">
          <mxGeometry x="1" width="20" height="20" relative="1" as="geometry">
            <mxPoint x="-24" y="4" as="offset" />
          </mxGeometry>
        </mxCell>
        <mxCell id="8q2B8iHWEoilIU4AEWa9-11" value="&lt;p style=&quot;margin:0px;margin-top:6px;text-align:center;&quot;&gt;&lt;b&gt;Building&lt;/b&gt;&lt;/p&gt;&lt;hr&gt;&lt;p style=&quot;margin:0px;margin-left:8px;&quot;&gt;+ Id_building: int&lt;/p&gt;&lt;p style=&quot;margin:0px;margin-left:8px;&quot;&gt;+ Id_invesment: int&lt;br&gt;+ Name: string&lt;/p&gt;&lt;p style=&quot;margin:0px;margin-left:8px;&quot;&gt;+Administration_name: string&lt;/p&gt;" style="align=left;overflow=fill;html=1;dropTarget=0;whiteSpace=wrap;" vertex="1" parent="1">
          <mxGeometry x="320" y="260" width="180" height="100" as="geometry" />
        </mxCell>
        <mxCell id="8q2B8iHWEoilIU4AEWa9-12" value="" style="shape=component;jettyWidth=8;jettyHeight=4;" vertex="1" parent="8q2B8iHWEoilIU4AEWa9-11">
          <mxGeometry x="1" width="20" height="20" relative="1" as="geometry">
            <mxPoint x="-24" y="4" as="offset" />
          </mxGeometry>
        </mxCell>
        <mxCell id="8q2B8iHWEoilIU4AEWa9-16" style="edgeStyle=orthogonalEdgeStyle;rounded=0;orthogonalLoop=1;jettySize=auto;html=1;entryX=1;entryY=0.667;entryDx=0;entryDy=0;entryPerimeter=0;endArrow=open;endFill=0;" edge="1" parent="1" source="8q2B8iHWEoilIU4AEWa9-7" target="8q2B8iHWEoilIU4AEWa9-9">
          <mxGeometry relative="1" as="geometry" />
        </mxCell>
      </root>
    </mxGraphModel>
  </diagram>
</mxfile>
